<?xml version="1.0" encoding="UTF-8" standalone="no"?>
<svg
   xmlns:dc="http://purl.org/dc/elements/1.1/"
   xmlns:cc="http://creativecommons.org/ns#"
   xmlns:rdf="http://www.w3.org/1999/02/22-rdf-syntax-ns#"
   xmlns:svg="http://www.w3.org/2000/svg"
   xmlns="http://www.w3.org/2000/svg"
   viewBox="0 0 137.33333 57.866669"
   height="57.866669"
   width="137.33333"
   xml:space="preserve"
   id="svg2"
   version="1.1"><metadata
     id="metadata8"><rdf:RDF><cc:Work
         rdf:about=""><dc:format>image/svg+xml</dc:format><dc:type
           rdf:resource="http://purl.org/dc/dcmitype/StillImage" /></cc:Work></rdf:RDF></metadata><defs
     id="defs6"><clipPath
       id="clipPath24"
       clipPathUnits="userSpaceOnUse"><path
         id="path22"
         d="M 0,0 H 103 V 43.4 H 0 Z" /></clipPath><clipPath
       id="clipPath40"
       clipPathUnits="userSpaceOnUse"><path
         id="path38"
         d="M 0,0 H 103 V 43.4 H 0 Z" /></clipPath></defs><g
     transform="matrix(1.3333333,0,0,-1.3333333,0,57.866667)"
     id="g10"><path
       id="path12"
       style="fill:#000000;fill-opacity:1;fill-rule:nonzero;stroke:none"
       d="M 0,0 H 103 V 43.4 H 0 Z" /><g
       transform="translate(17.2998,31.6)"
       id="g14"><path
         id="path16"
         style="fill:#ffffff;fill-opacity:1;fill-rule:nonzero;stroke:none"
         d="M 0,0 H -5.6 V -19.5 H 5.7 v 5.1 H 0 Z" /></g><g
       id="g18"><g
         clip-path="url(#clipPath24)"
         id="g20"><g
           transform="translate(85.7002,31.6)"
           id="g26"><path
             id="path28"
             style="fill:#ffffff;fill-opacity:1;fill-rule:nonzero;stroke:none"
             d="m 0,0 v -12.5 c 0,-1.3 -1,-2.4 -2.3,-2.4 -1.301,0 -2.301,1.1 -2.301,2.4 V 0 H -10.3 v -12.6 c 0,-4.2 3,-7.2 7.9,-7.2 5,0 8,3 8,7.2 V 0 Z" /></g></g></g><g
       transform="translate(54.7002,18.9999)"
       id="g30"><path
         id="path32"
         style="fill:#ffffff;fill-opacity:1;fill-rule:nonzero;stroke:none"
         d="m 0,0 -4.5,12.6 h -6.8 V -6.899 h 5.6 V 3.5 L -1.9,-6.899 H 1.899 L 5.7,3.5 V -6.899 h 5.6 V 12.6 H 4.5 Z" /></g><g
       id="g34"><g
         clip-path="url(#clipPath40)"
         id="g36"><g
           transform="translate(32.7998,16.4003)"
           id="g42"><path
             id="path44"
             style="fill:#ffffff;fill-opacity:1;fill-rule:nonzero;stroke:none"
             d="M 0,0 C -1.4,0 -2.5,1.1 -2.5,2.6 -2.5,4 -1.4,5.2 0,5.2 1.4,5.2 2.5,4.1 2.5,2.6 2.5,1.2 1.4,0 0,0 M 2.5,7.4 C 2,8.5 0.3,9.8 -1.6,9.8 c -3.7,0 -6.3,-2.9 -6.3,-7.2 0,-4.3 2.6,-7.201 6.3,-7.201 1.9,0 3.6,1.301 4.1,2.401 V -4.3 H 7.8 V 9.5 H 2.5 Z" /></g><g
           transform="translate(70.7998,21.4999)"
           id="g46"><path
             id="path48"
             style="fill:#ffffff;fill-opacity:1;fill-rule:nonzero;stroke:none"
             d="m 0,0 c -1.399,0 -2.5,-1.1 -2.5,-2.6 0,-1.4 1.101,-2.6 2.5,-2.6 1.4,0 2.5,1.1 2.5,2.6 C 2.5,-1.1 1.4,0 0,0" /></g></g></g></g></svg>